<svg id="SvgjsSvg1001" width="288" height="288" xmlns="http://www.w3.org/2000/svg" version="1.1" xmlns:xlink="http://www.w3.org/1999/xlink" xmlns:svgjs="http://svgjs.com/svgjs"><defs id="SvgjsDefs1002"></defs><g id="SvgjsG1008"><svg xmlns="http://www.w3.org/2000/svg" width="288" height="288" enable-background="new 0 0 260.674 227.138" overflow="visible" viewBox="0 0 260.674 227.138"><switch><g fill="#ffffff" class="color000 svgShape"><path fill="none" stroke="#ffffff" stroke-miterlimit="2.613" stroke-width="3.5" d="M23.943,161.61
							c-24.764-24.178-32.667-51.253-3.477-84.705c-2.045-9.61,6.908-14.72,23.389-16.751c-16.383,0.955-19.937-4.761-4.741-20.228
							C97.507-6.63,160.713-6.025,205.996,17.328" class="colorStroke000 svgStroke"></path><path fill-rule="evenodd" d="M23.644 161.238c-10.119-20.991-2.066-34.37 13.5-47.835 26.682-20.642 54.729-24.909 82.892-27.789 3.77-.326 5.202-.813 4.296-1.458-2.259-1.611-5.712-1.136-8.301-1.064-7.778.218-16.688.865-27.247 2.043-4.167.464-7.803.889-12.004.365-2.687-.335-5.473-.896-7.985-1.635-2.467-.726-4.644-1.91-7.249-2.104-1.562-.116-1.854.352-.875 1.403 1.325 1.422 3.262 2.205 3.346 4.449.112 2.983-3.41 6.03-7.142 5.09-3.7-.932-2.379-2.704-2.74 1.915-.256 3.274-1.591 5.928-4.124 7.89-2.105 1.63-4.769 2.816-7.031 4.331-5.624 3.764-11.182 7.352-19.487 18.169-2.488 3.241-4.248 6.02-5.348 10.027C15.789 143.631 17.621 152.364 23.644 161.238L23.644 161.238zM45.486 76.329c2.499 1.104 4.766 2.506 6.803 4.204 1.384 1.154 2.346 2.081 3.02 3.771.669 1.68-.075 1.682-2.236.006-1.998-1.459-4.151-2.67-6.511-3.838-2.01-.994-3.875-1.666-6.019-2.308-2.884-.949-2.684-2.615-.774-3.08C41.732 74.606 43.731 75.553 45.486 76.329L45.486 76.329z" clip-rule="evenodd" fill="#ffffff" class="color000 svgShape"></path><path fill-rule="evenodd" d="M33.772 123.384c18.811-17.154 42.186-25.902 66.956-32.079 3.366-.839 6.685-1.753 10.197-1.559 2.082.116.736.935-4.309 2.341-25.49 7.116-50.614 18.615-74.84 40.894-4.629 4.38-6.78 3.847-5.003-.613C28.327 128.467 30.722 126.167 33.772 123.384L33.772 123.384zM36.577 67.62c2.515-2.024 5.483-3.273 8.657-4.036 2.956-.71 6.208-.436 9.024-1.537 3.518-1.375 6.646-4.757 9.375-10.205 2.403-3.931 5.414-6.167 8.817-7.305 1.24-.414 2.867-.923 4.188-.618.632.146.105.554-1.579 1.225-2.472.88-4.952 1.931-7.489 4.012-1.169.959-2.024 1.894-2.537 3.36-.463 1.321.021 1.921 1.276 1.935 1.556.016 2.943-.645 4.299-1.336 5.218-2.662 11.47-7.956 18.076-14.149 1.431-1.343 2.827-2.65 4.376-3.861 6.37-4.975 12.74-8.014 19.11-10.007 1.502-.47 3.013-.953 4.595-1.048 1.131-.069 1.271.21.437.702-1.25.736-2.666 1.078-4.041 1.492-7.043 2.121-13.387 4.729-17.334 9.003-.826.895-2.256 2.21-2.864 3.203-.388.634.132.925 1.797.783 11.784-.889 23.69-.503 35.397-2.2 2.676-.387 5.301-1.303 7.963-.371 1.268.444 1.297 1.121-.203 1.727-2.266.913-4.768.888-7.166 1.041-16.535 1.063-31.173 2.538-38.776 5.542-1.271.501-2.49 1.124-3.72 1.735-2.207 1.095-2.973.578-1.356 2.544 4.909 5.969.792 12.345-4.573 13.715-1.905.487-7.023.262-7.4-2.462-.163-1.177 3.252-.531 4.149-2.503 1.573-3.459-3.972-6.212-4.883-.723l-3.173 1.042c-2.866.941-1.995 1.349-.206 3.691 3.187 4.173 7.293 5.879 11.946 6.116 1.352.068 1.689-.304 2.88-.591.582-.141.767.119.537.517-.825 1.43-5.725 2.065-7.562 2.697l-2.696.927c-2.291.788-2.995.687-.481 2.141 4.705 2.723 11.018 2.219 18.692-1.015 8.89-3.458 22.402-11.65 32.558-14.417 2.743-.747 5.533-.99 8.347-1.32 2.33-.274 5.918-1.321 8.184-.482.904.335.502.925-2.043 1.247-9.426.36-19.575 3.213-30.891 10.087-11.113 6.405-19.838 9.749-26.758 10.781-3.246.484-5.776.484-8.855-.59-1.183-.413-2.354-.905-3.514-1.477-3.836-1.892-3.077-2.239-7.009-.861-2.51.88-4.931 1.041-7.18-.169-2.172-1.168-3.056-2.331-5.584-3.12-4.681-1.46-9.165-2.492-13.483-2.421C34.146 70.124 32.625 70.802 36.577 67.62L36.577 67.62zM149.42 18.118c45.08 1.192 76.264 13.208 93.555 35.874C218.854 34.727 185.76 24.743 149.42 18.118L149.42 18.118zM169.965 36.449c52.992 9.482 83.229 33.292 90.709 71.431C250.184 77.584 217.148 53.305 169.965 36.449L169.965 36.449zM121.615 76.141c8.758-.494 20.285-4.864 32.209-9.789 11.408-4.294 22.346-7.346 31.459-8.066 2.027-.16 3.404-.106 5.32.693 2.66 1.111 1.904 2.098-1.094 1.423-1.529-.344-2.402-.475-4.008-.348-8.398.666-16.666 2.923-25.275 6.337-5.893 2.335-11.367 4.38-16.33 8.124-3.209 2.422-3.551 2.475.494 2.021 25.674-2.884 57.537-5.761 81.432 6.867-25.365-7.383-64.195-7.821-89.975.378-6.657 2.117-3.188 1.391-3.991-2.067-.137-.59-.727-1.021-1.597-1.372-2.649-1.068-5.192-.887-7.987-.887-1.895 0-3.51.276-4.804-1.446C116.674 76.95 118.055 76.327 121.615 76.141L121.615 76.141z" clip-rule="evenodd" fill="#ffffff" class="color000 svgShape"></path><path fill-rule="evenodd" d="M56.249,117.666c20.722-14.462,51.26-21.597,81.464-27.897
							c11.23-2.342,22.049-4.222,33.58-4.578c42.285-1.308,68.928,14.824,81.533,38.431c3.682,6.895,4.67,12.074,3.713,19.949
							c-0.969,7.98-3.887,13.905-7.242,17.723c5.338-22.518-4.658-41.563-32.748-56.512c-9.559-5.087-18.514-8.108-29.191-9.927
							c-22.447-3.824-47.473-2.705-74.913,3.039C92.647,102.037,74.986,110.251,56.249,117.666L56.249,117.666z" clip-rule="evenodd" fill="#ffffff" class="color000 svgShape"></path><path fill-rule="evenodd" d="M71.037,116.098
							c56.47-17.765,105.534-22.668,141.961-0.646c9.514,5.751,16.336,12.476,21.928,22.194c9.129,15.862,10.363,34.98-13.76,54.623
							c11.301-17.085,16.24-39.029-16.736-66.396c-8.57-7.113-16.838-12.902-27.662-15.953
							C149.172,102.142,109.018,107.555,71.037,116.098L71.037,116.098z" clip-rule="evenodd" fill="#ffffff" class="color000 svgShape"></path><path fill-rule="evenodd" d="M81.783,117.361
							c58.167-7.505,109.534-3.665,127.575,36.011c3.543,7.794,5.258,15.679,5.02,24.265c-0.508,18.312-10.67,33.294-36.826,42.762
							c15.459-10.185,22.215-34.605,12.898-57.044c-3.502-8.437-9.377-16.428-15.898-22.831
							C152.086,118.468,117.63,116.827,81.783,117.361L81.783,117.361z" clip-rule="evenodd" fill="#ffffff" class="color000 svgShape"></path><path fill-rule="evenodd" d="M141.52,135.693c37.004,15.319,48.33,79.133,5.057,88.497
							C175.9,208.27,173.027,158.561,141.52,135.693L141.52,135.693z" clip-rule="evenodd" fill="#ffffff" class="color000 svgShape"></path><path fill-rule="evenodd" d="M123.936,131.892
							c14.777,10.015,26.017,25.037,23.904,58.797c-6.438,23.372-16.961,37.816-34.767,36.347
							c18.219-5.384,27.595-22.557,28.13-51.518c-2.906-20.373-8.42-35.614-19.315-42.643
							C105.221,122.123,110.082,122.502,123.936,131.892L123.936,131.892z" clip-rule="evenodd" fill="#ffffff" class="color000 svgShape"></path><path fill-rule="evenodd" d="M90.316 122.419c18.042 8.061 31.605 26.398 29.715 53.586-.626 9.012-2.036 15.671-7.846 22.716-7.168 8.692-16.061 11.408-27.242 6.19 17.652 2.633 27.949-8.247 27.498-38.876C111.744 143.667 103.224 130.47 90.316 122.419L90.316 122.419zM101.548 47.695c13.144.285 36.01-7.566 49.592-1.553-9.713-.991-19.578-1.292-30.302 2.33-5.243 1.771-9.358 4.226-13.875 7.293l-7.088 4.813c-4.96 2.902-5.964 5.23-3.174-.366 1.284-2.576 1.348-5.542.512-8.346C95.373 45.7 94.848 47.55 101.548 47.695L101.548 47.695z" clip-rule="evenodd" fill="#ffffff" class="color000 svgShape"></path></g></switch></svg></g></svg>